# xmcd CD database file
#
# Track frame offsets:
#	150
#	11143
#	30093
#	48323
#	59088
#	73285
#	86945
#	103283
#	116723
#	131618
#	149870
#	162630
#	175793
#	190140
#	201388
#	210430
#
# Disc length: 3010 seconds
#
# Revision: 0
# Processed by: cddbd v1.5.2PL0 Copyright (c) Steve Scherf et al.
# Submitted via: ACXtractor (MTCDDB.DLL V2003.12.21)
#
DISCID=fe0bc010
DTITLE=Moyra Fraser - The Best of Scotlands
DYEAR=1998
DGENRE=Country
TTITLE0=Take me Back
TTITLE1=Loch Lomond
TTITLE2=Dark Island
TTITLE3=Barren Rocks of Aden
TTITLE4=If I Were a Blackbird
TTITLE5=Flower of Scotland
TTITLE6=Granny's Hieland Home
TTITLE7=I Belong to Glasgow
TTITLE8=Scotish Soldier
TTITLE9=Glencoe
TTITLE10=Whistling Rufus
TTITLE11=Northern Lights
TTITLE12=Teddy O'Neill
TTITLE13=Westering Home
TTITLE14=Mairi's Wedding
TTITLE15=The Cuckoo Waltz
EXTD=ID3G:   2 YEAR: 1998
EXTT0=
EXTT1=
EXTT2=
EXTT3=
EXTT4=
EXTT5=
EXTT6=
EXTT7=
EXTT8=
EXTT9=
EXTT10=
EXTT11=
EXTT12=
EXTT13=
EXTT14=
EXTT15=
PLAYORDER=
